mtllib level.mtl
# vertices
v 0 32 -0
v 0 32 64
v 0 64 64
v 0 64 -0
v 64 64 64
v 64 32 64
v 64 32 -0
v 64 64 -0
v -64 0 -64
v -64 0 64
v -64 32 64
v -64 32 -64
v 64 32 64
v 64 0 64
v 64 0 -64
v 64 32 -64
v -64 0 -192
v -64 0 -64
v -64 32 -64
v -64 32 -192
v 64 32 -64
v 64 0 -64
v 64 0 -192
v 64 32 -192
v -320 0 -192
v -320 0 -64
v -320 32 -64
v -320 32 -192
v -64 32 -64
v -64 0 -64
v -64 0 -192
v -64 32 -192
v -192 0 -64
v -192 0 64
v -192 32 64
v -192 32 -64
v -64 32 64
v -64 0 64
v -64 0 -64
v -64 32 -64
v -192 0 -320
v -192 0 -192
v -192 32 -192
v -192 32 -320
v -64 32 -192
v -64 0 -192
v -64 0 -320
v -64 32 -320
v -192 32 -320
v -192 32 -288
v -192 160 -288
v -192 160 -320
v -64 160 -288
v -64 32 -288
v -64 32 -320
v -64 160 -320
v -320 32 -192
v -320 32 -64
v -320 160 -64
v -320 160 -192
v -288 160 -64
v -288 32 -64
v -288 32 -192
v -288 160 -192
v 64 0 -192
v 64 0 64
v 64 32 64
v 64 32 -192
v 576 32 64
v 576 0 64
v 576 0 -192
v 576 32 -192
v -192 0 64
v -192 0 576
v -192 32 576
v -192 32 64
v 64 32 576
v 64 0 576
v 64 0 64
v 64 32 64
v 64 0 64
v 64 0 576
v 64 32 576
v 64 32 64
v 576 32 576
v 576 0 576
v 576 0 64
v 576 32 64
v 448 32 448
v 448 32 512
v 448 288 512
v 448 288 448
v 512 288 512
v 512 32 512
v 512 32 448
v 512 288 448

# texture coordinates
vt 0 0.015625
vt -0.03125 0.015625
vt -0.03125 0.03125
vt 0 0.03125
vt 0.03125 0.03125
vt 0.03125 0.015625
vt 0.03125 -0.03125
vt 0 -0.03125
vt 0 -0
vt 0.03125 -0
vt 0.03125 -0.046875
vt -0.03125 -0.046875
vt -0.03125 -0.03125
vt 0.125 -0.03125
vt 0.0625 -0.03125
vt 0.0625 -0.046875
vt 0.125 -0.046875
vt 0.0625 0.03125
vt 0.125 0.03125
vt 0.09375 -0
vt 0.09375 0.015625
vt -0.03125 -0
vt -0.03125 0.09375
vt 0.03125 0.09375
vt -0.15625 0.015625
vt -0.15625 -0
vt -0.15625 0.03125
vt -0.15625 0.09375
vt -0.09375 0.015625
vt -0.09375 -0
vt -0.09375 -0.03125
vt -0.09375 0.03125
vt 0.15625 -0
vt 0.15625 0.015625
vt -0.09375 0.09375
vt -0.09375 0.15625
vt -0.03125 0.15625
vt 0.140625 0.015625
vt 0.140625 0.078125
vt 0.15625 0.078125
vt -0.03125 0.078125
vt -0.09375 0.078125
vt -0.03125 0.140625
vt -0.09375 0.140625
vt 0.03125 0.078125
vt 0.09375 0.078125
vt -0.140625 0.078125
vt -0.15625 0.078125
vt -0.140625 0.015625
vt -0.140625 0.03125
vt -0.140625 0.09375
vt 0.28125 0.015625
vt 0.28125 -0
vt 0.28125 -0.03125
vt 0.28125 0.09375
vt -0.28125 -0
vt -0.28125 0.015625
vt 0.03125 -0.28125
vt -0.09375 -0.28125
vt 0.28125 -0.28125
vt -0.21875 0.015625
vt -0.25 0.015625
vt -0.25 0.140625
vt -0.21875 0.140625
vt 0.25 0.140625
vt 0.21875 0.140625
vt 0.21875 0.015625
vt 0.25 0.015625
vt 0.25 -0.25
vt 0.21875 -0.25
vt 0.21875 -0.21875
vt 0.25 -0.21875

# normals
vn -1 0 -0
vn -0 0 1
vn 0 -1 0
vn 0 1 -0
vn 0 0 -1
vn 1 0 -0

o entity0_brush0
usemtl grate
f  1/1/1  2/2/1  3/3/1  4/4/1
usemtl grate
f  5/5/2  3/4/2  2/1/2  6/6/2
usemtl grate
f  6/7/3  2/8/3  1/9/3  7/10/3
usemtl grate
f  8/10/4  4/9/4  3/8/4  5/7/4
usemtl grate
f  7/6/5  1/1/5  4/4/5  8/5/5
usemtl grate
f  8/4/6  5/3/6  6/2/6  7/1/6

o entity0_brush1
usemtl grate
f  9/11/1  10/12/1  11/13/1  12/7/1
usemtl grate
f  13/14/2  11/15/2  10/16/2  14/17/2
usemtl grate
f  14/14/3  10/15/3  9/18/3  15/19/3
usemtl grate
f  16/19/4  12/18/4  11/15/4  13/14/4
usemtl grate
f  15/17/5  9/16/5  12/15/5  16/14/5
usemtl grate
f  16/7/6  13/13/6  14/12/6  15/11/6

o entity0_brush2
usemtl grate
f  17/20/1  18/10/1  19/6/1  20/21/1
usemtl grate
f  21/6/2  19/2/2  18/22/2  22/10/2
usemtl grate
f  22/5/3  18/3/3  17/23/3  23/24/3
usemtl grate
f  24/24/4  20/23/4  19/3/4  21/5/4
usemtl grate
f  23/10/5  17/22/5  20/2/5  24/6/5
usemtl grate
f  24/21/6  21/6/6  22/10/6  23/20/6

o entity0_brush3
usemtl grate
f  25/20/1  26/10/1  27/6/1  28/21/1
usemtl grate
f  29/2/2  27/25/2  26/26/2  30/22/2
usemtl grate
f  30/3/3  26/27/3  25/28/3  31/23/3
usemtl grate
f  32/23/4  28/28/4  27/27/4  29/3/4
usemtl grate
f  31/22/5  25/26/5  28/25/5  32/2/5
usemtl grate
f  32/21/6  29/6/6  30/10/6  31/20/6

o entity0_brush4
usemtl grate
f  33/10/1  34/22/1  35/2/1  36/6/1
usemtl grate
f  37/2/2  35/29/2  34/30/2  38/22/2
usemtl grate
f  38/13/3  34/31/3  33/32/3  39/3/3
usemtl grate
f  40/3/4  36/32/4  35/31/4  37/13/4
usemtl grate
f  39/22/5  33/30/5  36/29/5  40/2/5
usemtl grate
f  40/6/6  37/2/6  38/22/6  39/10/6

o entity0_brush5
usemtl grate
f  41/33/1  42/20/1  43/21/1  44/34/1
usemtl grate
f  45/2/2  43/29/2  42/30/2  46/22/2
usemtl grate
f  46/23/3  42/35/3  41/36/3  47/37/3
usemtl grate
f  48/37/4  44/36/4  43/35/4  45/23/4
usemtl grate
f  47/22/5  41/30/5  44/29/5  48/2/5
usemtl grate
f  48/34/6  45/21/6  46/20/6  47/33/6

o entity0_brush6
usemtl grate
f  49/34/1  50/38/1  51/39/1  52/40/1
usemtl grate
f  53/41/2  51/42/2  50/29/2  54/2/2
usemtl grate
f  54/43/3  50/44/3  49/36/3  55/37/3
usemtl grate
f  56/37/4  52/36/4  51/44/4  53/43/4
usemtl grate
f  55/2/5  49/29/5  52/42/5  56/41/5
usemtl grate
f  56/40/6  53/39/6  54/38/6  55/34/6

o entity0_brush7
usemtl grate
f  57/21/1  58/6/1  59/45/1  60/46/1
usemtl grate
f  61/47/2  59/48/2  58/25/2  62/49/2
usemtl grate
f  62/50/3  58/27/3  57/28/3  63/51/3
usemtl grate
f  64/51/4  60/28/4  59/27/4  61/50/4
usemtl grate
f  63/49/5  57/25/5  60/48/5  64/47/5
usemtl grate
f  64/46/6  61/45/6  62/6/6  63/21/6

o entity0_brush8
usemtl grate
f  65/20/1  66/22/1  67/2/1  68/21/1
usemtl grate
f  69/52/2  67/6/2  66/10/2  70/53/2
usemtl grate
f  70/54/3  66/7/3  65/24/3  71/55/3
usemtl grate
f  72/55/4  68/24/4  67/7/4  69/54/4
usemtl grate
f  71/53/5  65/10/5  68/6/5  72/52/5
usemtl grate
f  72/21/6  69/2/6  70/22/6  71/20/6

o entity0_brush9
usemtl grate
f  73/22/1  74/56/1  75/57/1  76/2/1
usemtl grate
f  77/6/2  75/29/2  74/30/2  78/10/2
usemtl grate
f  78/58/3  74/59/3  73/31/3  79/7/3
usemtl grate
f  80/7/4  76/31/4  75/59/4  77/58/4
usemtl grate
f  79/10/5  73/30/5  76/29/5  80/6/5
usemtl grate
f  80/2/6  77/57/6  78/56/6  79/22/6

o entity0_brush10
usemtl grate
f  81/22/1  82/56/1  83/57/1  84/2/1
usemtl grate
f  85/52/2  83/6/2  82/10/2  86/53/2
usemtl grate
f  86/60/3  82/58/3  81/7/3  87/54/3
usemtl grate
f  88/54/4  84/7/4  83/58/4  85/60/4
usemtl grate
f  87/53/5  81/10/5  84/6/5  88/52/5
usemtl grate
f  88/2/6  85/57/6  86/56/6  87/22/6

o entity0_brush11
usemtl grate
f  89/61/1  90/62/1  91/63/1  92/64/1
usemtl grate
f  93/65/2  91/66/2  90/67/2  94/68/2
usemtl grate
f  94/69/3  90/70/3  89/71/3  95/72/3
usemtl grate
f  96/72/4  92/71/4  91/70/4  93/69/4
usemtl grate
f  95/68/5  89/67/5  92/66/5  96/65/5
usemtl grate
f  96/64/6  93/63/6  94/62/6  95/61/6

